<?xml version="1.0" encoding="UTF-8" standalone="no"?>
<!-- Generated by graphviz version 8.1.0 (0)
 -->

<!-- Title: snakemake_dag Pages: 1 -->

<svg
   width="604.95398pt"
   height="337.936pt"
   viewBox="-6 -3 606.6533 337.93601"
   version="1.1"
   id="svg84"
   sodipodi:docname="dag.svg"
   inkscape:version="1.2.2 (732a01da63, 2022-12-09)"
   xmlns:inkscape="http://www.inkscape.org/namespaces/inkscape"
   xmlns:sodipodi="http://sodipodi.sourceforge.net/DTD/sodipodi-0.dtd"
   xmlns="http://www.w3.org/2000/svg"
   xmlns:svg="http://www.w3.org/2000/svg">
  <defs
     id="defs88" />
  <sodipodi:namedview
     id="namedview86"
     pagecolor="#ffffff"
     bordercolor="#000000"
     borderopacity="0.25"
     inkscape:showpageshadow="2"
     inkscape:pageopacity="0.0"
     inkscape:pagecheckerboard="0"
     inkscape:deskcolor="#d1d1d1"
     inkscape:document-units="pt"
     showgrid="false"
     inkscape:zoom="1.8935644"
     inkscape:cx="388.15686"
     inkscape:cy="185.36471"
     inkscape:window-width="2560"
     inkscape:window-height="1346"
     inkscape:window-x="4597"
     inkscape:window-y="-11"
     inkscape:window-maximized="1"
     inkscape:current-layer="svg84" />
  <g
     id="path7205">
    <path
       style="color:#000000;fill:#808080;stroke-linejoin:round;-inkscape-stroke:none"
       d="m 96.40625,180.19531 -0.701172,1.86133 134.648442,50.60742 0.69921,-1.86133 z"
       id="path8358" />
    <g
       id="g8348">
      <g
         id="path8350">
        <path
           style="color:#000000;fill:#808080;fill-rule:evenodd;stroke-width:0.994285pt;-inkscape-stroke:none"
           d="m 236.07358,233.75269 -9.79977,1.6277 3.49813,-9.30716 z"
           id="path8354" />
        <path
           style="color:#000000;fill:#808080;fill-rule:evenodd;-inkscape-stroke:none"
           d="m 229.55469,224.76562 -4.30469,11.45704 12.0625,-2.00391 -0.72656,-0.88672 z m 0.43359,2.61719 4.8457,5.9043 -7.53515,1.25195 z"
           id="path8356" />
      </g>
    </g>
  </g>
  <g
     id="path7673">
    <path
       style="color:#000000;fill:#808080;stroke-linejoin:round;-inkscape-stroke:none"
       d="m 495.35937,179.89258 -170.3164,50.88867 0.57031,1.90625 170.31641,-50.88867 z"
       id="path8378" />
    <g
       id="g8368">
      <g
         id="path8370">
        <path
           style="color:#000000;fill:#808080;fill-rule:evenodd;stroke-width:0.994285pt;-inkscape-stroke:none"
           d="m 319.83145,233.37668 6.81735,-7.22554 2.84647,9.52669 z"
           id="path8374" />
        <path
           style="color:#000000;fill:#808080;fill-rule:evenodd;-inkscape-stroke:none"
           d="m 326.95508,224.86133 -8.39258,8.89453 1.11523,0.26562 10.78125,2.56641 z m -0.61328,2.58008 2.18945,7.32617 -7.42969,-1.76953 z"
           id="path8376" />
      </g>
    </g>
  </g>
  <path
     fill="none"
     stroke="#d85656"
     stroke-width="2"
     d="m 293.2977,289.28383 c 0,0 -30,0 -30,0 -6,0 -12,6 -12,12 0,0 0,12 0,12 0,6 6,12 12,12 0,0 30,0 30,0 6,0 12,-6 12,-12 0,0 0,-12 0,-12 0,-6 -6,-12 -12,-12"
     id="path8"
     style="stroke:#56d8d8;stroke-opacity:1" />
  <text
     text-anchor="middle"
     x="278.50034"
     y="310.40384"
     font-family="sans"
     font-size="10px"
     id="text10">all</text>
  <path
     fill="none"
     stroke="#d6d856"
     stroke-width="2"
     d="m 305.0477,217.28383 c 0,0 -53.5,0 -53.5,0 -6,0 -12,6 -12,12 0,0 0,12 0,12 0,6 6,12 12,12 0,0 53.5,0 53.5,0 6,0 12,-6 12,-12 0,0 0,-12 0,-12 0,-6 -6,-12 -12,-12"
     id="path15"
     style="stroke:#97d856;stroke-opacity:1" />
  <text
     text-anchor="middle"
     x="278.05112"
     y="238.40387"
     font-family="sans"
     font-size="10px"
     id="text17">merge_results</text>
  <g
     id="edge1"
     class="edge"
     transform="translate(237.66637,325.28383)">
    <title
       id="title20">1-&gt;0</title>
    <path
       fill="none"
       stroke="#808080"
       stroke-width="2"
       d="m 40.62,-71.34 c 0,6.59 0,14.26 0,21.67"
       id="path22" />
    <polygon
       fill="#808080"
       stroke="#808080"
       stroke-width="2"
       points="44.13,-49.9 40.62,-39.9 37.13,-49.9 "
       id="polygon24" />
  </g>
  <g
     id="edge2"
     class="edge"
     transform="translate(237.66637,325.28383)">
    <title
       id="title34">2-&gt;1</title>
    <path
       fill="none"
       stroke="#808080"
       stroke-width="2"
       d="m 40.62,-143.34 c 0,6.59 0,14.26 0,21.67"
       id="path36" />
    <polygon
       fill="#808080"
       stroke="#808080"
       stroke-width="2"
       points="44.13,-121.9 40.62,-111.9 37.13,-121.9 "
       id="polygon38" />
  </g>
  <path
     fill="none"
     stroke="#d85656"
     stroke-width="2.08178"
     d="M 159.77562,144.87797 H 36.07693 c -6.49621,0 -12.99243,6.00417 -12.99243,12.00832 v 12.00833 c 0,6.00416 6.49622,12.00832 12.99243,12.00832 h 123.69869 c 6.49622,0 12.99243,-6.00416 12.99243,-12.00832 v -12.00833 c 0,-6.00415 -6.49621,-12.00832 -12.99243,-12.00832"
     id="path878"
     sodipodi:nodetypes="csssssssc" />
  <text
     text-anchor="middle"
     x="97.679001"
     y="159.63132"
     font-family="sans"
     font-size="10.0281px"
     id="text880"
     style="stroke-width:1.00281">run_model</text>
  <text
     text-anchor="middle"
     x="97.679001"
     y="172.41714"
     font-family="sans"
     font-size="10.0281px"
     id="text882"
     style="stroke-width:1.00281">restriction: Positive_Benefits</text>
  <path
     fill="none"
     stroke="#d89556"
     stroke-width="2.09594"
     d="m 161.06907,72.6828 c 0,0 -146.84612,0 -146.84612,0 -6.58748,0 -13.17498,6.0018 -13.17498,12.0036 0,0 0,12.00361 0,12.00361 0,6.00179 6.5875,12.00359 13.17498,12.00359 0,0 146.84612,0 146.84612,0 6.58749,0 13.17498,-6.0018 13.17498,-12.00359 0,0 0,-12.00361 0,-12.00361 0,-6.0018 -6.58749,-12.0036 -13.17498,-12.0036"
     id="path894" />
  <text
     text-anchor="middle"
     x="87.650909"
     y="87.429062"
     font-family="sans"
     font-size="10.0281px"
     id="text896"
     style="stroke-width:1.00281">prepare_model</text>
  <text
     text-anchor="middle"
     x="87.650909"
     y="100.21489"
     font-family="sans"
     font-size="10.0281px"
     id="text898"
     style="stroke-width:1.00281">scenario: Social_private_benefits</text>
  <g
     id="edge73"
     class="edge"
     transform="matrix(1.0028091,0,0,1.0028091,-1579.9003,325.34553)">
    <title
       id="title901">39-&gt;38</title>
    <path
       fill="none"
       stroke="#808080"
       stroke-width="2"
       d="m 1665.4,-215.34 c 0.94,6.59 2.04,14.26 3.09,21.67"
       id="path903" />
    <polygon
       fill="#808080"
       stroke="#808080"
       stroke-width="2"
       points="1665.44,-192.31 1672.37,-193.3 1670.32,-182.9 "
       id="polygon905" />
  </g>
  <path
     fill="none"
     stroke="#569ad8"
     stroke-width="2.00562"
     d="m 112.21972,0.43538 c 0,0 -49.13765,0 -49.13765,0 -6.01685,0 -12.03371,6.01686 -12.03371,12.03371 0,0 0,12.03371 0,12.03371 0,6.01685 6.01686,12.03371 12.03371,12.03371 0,0 49.13765,0 49.13765,0 6.01685,0 12.03371,-6.01686 12.03371,-12.03371 0,0 0,-12.03371 0,-12.03371 0,-6.01685 -6.01686,-12.03371 -12.03371,-12.03371"
     id="path910" />
  <text
     text-anchor="middle"
     x="87.650909"
     y="14.774219"
     font-family="sans"
     font-size="10.0281px"
     id="text912"
     style="stroke-width:1.00281">process_data</text>
  <g
     id="edge74"
     class="edge"
     transform="matrix(1.0028091,0,0,1.0028091,-1579.9003,325.34553)">
    <title
       id="title915">40-&gt;39</title>
    <path
       fill="none"
       stroke="#808080"
       stroke-width="2"
       d="m 1662.88,-287.34 c 0,6.59 0,14.26 0,21.67"
       id="path917" />
    <polygon
       fill="#808080"
       stroke="#808080"
       stroke-width="2"
       points="1659.38,-265.9 1666.38,-265.9 1662.88,-255.9 "
       id="polygon919" />
  </g>
  <path
     fill="none"
     stroke="#d85656"
     stroke-width="2.08178"
     d="m 434.84446,144.87797 h 123.69869 c 6.49621,0 12.99243,6.00417 12.99243,12.00832 v 12.00833 c 0,6.00416 -6.49622,12.00832 -12.99243,12.00832 H 434.84446 c -6.49622,0 -12.99243,-6.00416 -12.99243,-12.00832 v -12.00833 c 0,-6.00415 6.49621,-12.00832 12.99243,-12.00832"
     id="path878-7"
     sodipodi:nodetypes="csssssssc" />
  <path
     fill="none"
     stroke="#d89556"
     stroke-width="2.09594"
     d="m 433.55101,72.6828 c 0,0 146.84612,0 146.84612,0 6.58748,0 13.17498,6.0018 13.17498,12.0036 0,0 0,12.00361 0,12.00361 0,6.00179 -6.5875,12.00359 -13.17498,12.00359 0,0 -146.84612,0 -146.84612,0 -6.58749,0 -13.17498,-6.0018 -13.17498,-12.00359 0,0 0,-12.00361 0,-12.00361 0,-6.0018 6.58749,-12.0036 13.17498,-12.0036"
     id="path894-8" />
  <g
     id="edge73-9"
     class="edge"
     transform="matrix(-1.0028091,0,0,1.0028091,2174.5203,325.34553)">
    <title
       id="title901-6">39-&gt;38</title>
    <path
       fill="none"
       stroke="#808080"
       stroke-width="2"
       d="m 1665.4,-215.34 c 0.94,6.59 2.04,14.26 3.09,21.67"
       id="path903-4" />
    <polygon
       fill="#808080"
       stroke="#808080"
       stroke-width="2"
       points="1670.32,-182.9 1665.44,-192.31 1672.37,-193.3 "
       id="polygon905-5" />
  </g>
  <g
     id="edge74-4"
     class="edge"
     transform="matrix(-1.0028091,0,0,1.0028091,2174.5203,325.34553)">
    <title
       id="title915-9">40-&gt;39</title>
    <path
       fill="none"
       stroke="#808080"
       stroke-width="2"
       d="m 1662.88,-287.34 c 0,6.59 0,14.26 0,21.67"
       id="path917-1" />
    <polygon
       fill="#808080"
       stroke="#808080"
       stroke-width="2"
       points="1662.88,-255.9 1659.38,-265.9 1666.38,-265.9 "
       id="polygon919-7" />
  </g>
  <text
     text-anchor="middle"
     x="506.97891"
     y="87.429062"
     font-family="sans"
     font-size="10.0281px"
     id="text5067"
     style="stroke-width:1.00281">prepare_model</text>
  <text
     text-anchor="middle"
     x="506.91031"
     y="100.21489"
     font-family="sans"
     font-size="10.0281px"
     id="text5069"
     style="stroke-width:1.00281">scenario:Private_benefits</text>
  <text
     text-anchor="middle"
     x="496.69864"
     y="159.63132"
     font-family="sans"
     font-size="10.0281px"
     id="text5073"
     style="stroke-width:1.00281">run_model</text>
  <text
     text-anchor="middle"
     x="496.44644"
     y="172.41714"
     font-family="sans"
     font-size="10.0281px"
     id="text5075"
     style="stroke-width:1.00281">restriction: Positive_Benefits</text>
  <path
     fill="none"
     stroke="#d85656"
     stroke-width="2.08178"
     d="m 340.14705,144.87797 c 0,0 -123.69869,0 -123.69869,0 -6.49621,0 -12.99243,6.00417 -12.99243,12.00832 0,0 0,12.00833 0,12.00833 0,6.00416 6.49622,12.00832 12.99243,12.00832 0,0 123.69869,0 123.69869,0 6.49622,0 12.99243,-6.00416 12.99243,-12.00832 0,0 0,-12.00833 0,-12.00833 0,-6.00415 -6.49621,-12.00832 -12.99243,-12.00832"
     id="path5109" />
  <text
     text-anchor="middle"
     x="278.30258"
     y="159.63132"
     font-family="sans"
     font-size="10.0281px"
     id="text5111"
     style="stroke-width:1.00281">run_model</text>
  <text
     text-anchor="middle"
     x="278.05042"
     y="172.41714"
     font-family="sans"
     font-size="10.0281px"
     id="text5113"
     style="stroke-width:1.00281">restriction: Positive_Benefits</text>
  <path
     fill="none"
     stroke="#d89556"
     stroke-width="2.09594"
     d="m 351.72076,72.6828 c 0,0 -146.84612,0 -146.84612,0 -6.58748,0 -13.17498,6.0018 -13.17498,12.0036 0,0 0,12.00361 0,12.00361 0,6.00179 6.5875,12.00359 13.17498,12.00359 0,0 146.84612,0 146.84612,0 6.58749,0 13.17498,-6.0018 13.17498,-12.00359 0,0 0,-12.00361 0,-12.00361 0,-6.0018 -6.58749,-12.0036 -13.17498,-12.0036"
     id="path5115" />
  <text
     text-anchor="middle"
     x="278.30258"
     y="87.429062"
     font-family="sans"
     font-size="10.0281px"
     id="text5117"
     style="stroke-width:1.00281">prepare_model</text>
  <text
     text-anchor="middle"
     x="278.30258"
     y="100.21489"
     font-family="sans"
     font-size="10.0281px"
     id="text5119"
     style="stroke-width:1.00281">scenario: Social_private_benefits</text>
  <path
     fill="none"
     stroke="#569ad8"
     stroke-width="2.00562"
     d="m 302.87141,0.43538 c 0,0 -49.13765,0 -49.13765,0 -6.01685,0 -12.03371,6.01686 -12.03371,12.03371 0,0 0,12.03371 0,12.03371 0,6.01685 6.01686,12.03371 12.03371,12.03371 0,0 49.13765,0 49.13765,0 6.01685,0 12.03371,-6.01686 12.03371,-12.03371 0,0 0,-12.03371 0,-12.03371 0,-6.01685 -6.01686,-12.03371 -12.03371,-12.03371"
     id="path5129" />
  <g
     id="g5139"
     class="edge"
     transform="matrix(1.0028091,0,0,1.0028091,-1389.2486,325.34553)">
    <title
       id="title5133">40-&gt;39</title>
    <path
       fill="none"
       stroke="#808080"
       stroke-width="2"
       d="m 1662.88,-287.34 c 0,6.59 0,14.26 0,21.67"
       id="path5135" />
    <polygon
       fill="#808080"
       stroke="#808080"
       stroke-width="2"
       points="1666.38,-265.9 1662.88,-255.9 1659.38,-265.9 "
       id="polygon5137" />
  </g>
  <g
     id="g5147"
     class="edge"
     transform="matrix(1.0028091,0,0,1.0028091,-1389.2486,397.88874)">
    <title
       id="title5141">40-&gt;39</title>
    <path
       fill="none"
       stroke="#808080"
       stroke-width="2"
       d="m 1662.88,-287.34 c 0,6.59 0,14.26 0,21.67"
       id="path5143" />
    <polygon
       fill="#808080"
       stroke="#808080"
       stroke-width="2"
       points="1662.88,-255.9 1659.38,-265.9 1666.38,-265.9 "
       id="polygon5145" />
  </g>
  <text
     text-anchor="middle"
     x="87.692535"
     y="27.614504"
     font-family="sans"
     font-size="10.0281px"
     id="text370"
     style="stroke-width:1.00281">country: AGO</text>
  <text
     text-anchor="middle"
     x="278.28299"
     y="14.774219"
     font-family="sans"
     font-size="10.0281px"
     id="text5313"
     style="stroke-width:1.00281">process_data</text>
  <text
     text-anchor="middle"
     x="278.32462"
     y="27.614504"
     font-family="sans"
     font-size="10.0281px"
     id="text5315"
     style="stroke-width:1.00281">country:BDI</text>
  <path
     fill="none"
     stroke="#569ad8"
     stroke-width="2.00562"
     d="m 531.5429,0.43538 c 0,0 -49.13765,0 -49.13765,0 -6.01685,0 -12.03372,6.01686 -12.03372,12.03371 0,0 0,12.03371 0,12.03371 0,6.01685 6.01686,12.03371 12.03372,12.03371 0,0 49.13765,0 49.13765,0 6.01684,0 12.03371,-6.01686 12.03371,-12.03371 0,0 0,-12.03371 0,-12.03371 0,-6.01685 -6.01686,-12.03371 -12.03371,-12.03371"
     id="path5317" />
  <text
     text-anchor="middle"
     x="506.9545"
     y="14.774219"
     font-family="sans"
     font-size="10.0281px"
     id="text5319"
     style="stroke-width:1.00281">process_data</text>
  <text
     text-anchor="middle"
     x="506.99606"
     y="27.614504"
     font-family="sans"
     font-size="10.0281px"
     id="text5321"
     style="stroke-width:1.00281">country:ZWE</text>
  <text
     xml:space="preserve"
     style="font-size:28.9101px;font-family:sans-serif;-inkscape-font-specification:'sans-serif, Normal';text-align:center;text-anchor:middle;fill:#808080;fill-opacity:1;stroke:#808080;stroke-width:0.910551;stroke-linejoin:round;-inkscape-stroke:none;stop-color:#000000"
     x="392.63589"
     y="92.699768"
     id="text5325"><tspan
       sodipodi:role="line"
       id="tspan5323"
       style="fill:#808080;fill-opacity:1;stroke:#808080;stroke-width:0.910551"
       x="392.63589"
       y="92.699768">...</tspan></text>
  <text
     xml:space="preserve"
     style="font-size:28.9101px;font-family:sans-serif;-inkscape-font-specification:'sans-serif, Normal';text-align:center;text-anchor:middle;fill:#808080;fill-opacity:1;stroke:#808080;stroke-width:0.910551;stroke-linejoin:round;-inkscape-stroke:none;stop-color:#000000"
     x="387.49576"
     y="164.90202"
     id="text7873"><tspan
       sodipodi:role="line"
       id="tspan7871"
       style="fill:#808080;fill-opacity:1;stroke:#808080;stroke-width:0.910551"
       x="387.49576"
       y="164.90202">...</tspan></text>
  <text
     xml:space="preserve"
     style="font-size:28.9101px;font-family:sans-serif;-inkscape-font-specification:'sans-serif, Normal';text-align:center;text-anchor:middle;fill:#808080;fill-opacity:1;stroke:#808080;stroke-width:0.910551;stroke-linejoin:round;-inkscape-stroke:none;stop-color:#000000"
     x="392.63834"
     y="20.497513"
     id="text7885"><tspan
       sodipodi:role="line"
       id="tspan7883"
       style="fill:#808080;fill-opacity:1;stroke:#808080;stroke-width:0.910551"
       x="392.63834"
       y="20.497513">...</tspan></text>
</svg>
